<?xml version="1.0" encoding="UTF-8" standalone="no"?>
<!-- Uploaded to: SVG Repo, www.svgrepo.com, Transformed by: SVG Repo Mixer Tools -->

<svg
   height="800px"
   width="800px"
   version="1.1"
   id="_x32_"
   viewBox="-10.24 -10.24 532.48 532.48"
   xml:space="preserve"
   fill="#000000"
   stroke="#000000"
   stroke-width="15.36"
   sodipodi:docname="carmarker.svg"
   inkscape:version="1.4.2 (ebf0e94, 2025-05-08)"
   xmlns:inkscape="http://www.inkscape.org/namespaces/inkscape"
   xmlns:sodipodi="http://sodipodi.sourceforge.net/DTD/sodipodi-0.dtd"
   xmlns="http://www.w3.org/2000/svg"
   xmlns:svg="http://www.w3.org/2000/svg"><defs
   id="defs4" /><sodipodi:namedview
   id="namedview4"
   pagecolor="#ffffff"
   bordercolor="#000000"
   borderopacity="0.25"
   inkscape:showpageshadow="2"
   inkscape:pageopacity="0.0"
   inkscape:pagecheckerboard="0"
   inkscape:deskcolor="#d1d1d1"
   showgrid="false"
   inkscape:zoom="0.74875"
   inkscape:cx="102.17028"
   inkscape:cy="408.68114"
   inkscape:window-width="2560"
   inkscape:window-height="1403"
   inkscape:window-x="0"
   inkscape:window-y="0"
   inkscape:window-maximized="1"
   inkscape:current-layer="_x32_" />

<g
   id="SVGRepo_bgCarrier"
   stroke-width="0" />

<g
   id="SVGRepo_tracerCarrier"
   stroke-linecap="round"
   stroke-linejoin="round" />

<g
   id="SVGRepo_iconCarrier"> <style
   type="text/css"
   id="style1"> .st0{fill:#f5c211;} </style> <g
   id="g4"> <path
   class="st0"
   d="M174.468,203.704c-11.183,0-20.24,9.066-20.24,20.249c0,11.173,9.057,20.248,20.24,20.248 c11.187,0,20.248-9.075,20.248-20.248C194.717,212.77,185.655,203.704,174.468,203.704z"
   id="path1" /> <path
   class="st0"
   d="M405.969,62.122c-82.83-82.83-217.108-82.83-299.938,0c-82.813,82.822-82.813,217.12,0,299.924L255.994,512 l149.976-149.953C488.781,279.243,488.781,144.944,405.969,62.122z M205.979,298.28c0,5.173-4.199,9.372-9.378,9.372h-25.897 c-5.174,0-9.373-4.199-9.373-9.372v-19.292h44.648V298.28z M350.661,298.28c0,5.173-4.195,9.372-9.373,9.372H315.4 c-5.187,0-9.382-4.199-9.382-9.372v-19.292h44.643V298.28z M337.519,271.003H174.468c-25.981,0-47.037-21.074-47.037-47.05 c0-20.047,12.544-37.159,30.21-43.932l13.173-47.709c7.111-25.748,30.522-43.581,57.24-43.581h55.888 c26.701,0,50.129,17.833,57.245,43.581l13.164,47.709c17.67,6.782,30.215,23.885,30.215,43.932 C384.566,249.93,363.5,271.003,337.519,271.003z"
   id="path2" /> <path
   class="st0"
   d="M308.433,137.1c-3.799-13.748-16.418-23.358-30.689-23.358h-43.493c-14.275,0-26.89,9.611-30.689,23.376 l-4.792,17.358c-0.342,1.23-0.083,2.539,0.686,3.55c0.768,1.01,1.968,1.608,3.237,1.608h106.61c1.27,0,2.469-0.598,3.237-1.608 c0.778-1.01,1.028-2.32,0.681-3.55L308.433,137.1z"
   id="path3" /> <path
   class="st0"
   d="M337.519,203.704c-11.178,0-20.248,9.066-20.248,20.249c0,11.173,9.07,20.248,20.248,20.248 c11.187,0,20.253-9.075,20.253-20.248C357.772,212.77,348.706,203.704,337.519,203.704z"
   id="path4" /> </g> </g>

<path
   style="fill:#ffffff;fill-opacity:1;stroke:#000000;stroke-width:10.2571;stroke-opacity:0.481247"
   d="m 270.25042,464.97496 c -0.54293,-0.54293 -0.80134,-3.66537 -0.80134,-9.68281 v -8.88147 h 21.70284 21.70284 v 8.88147 c 0,6.01744 -0.25841,9.13988 -0.80134,9.68281 -1.14504,1.14504 -40.65796,1.14504 -41.803,0 z"
   id="path5"
   transform="matrix(0.6656,0,0,0.6656,-10.24,-10.24)" /><path
   style="fill:#ffffff;fill-opacity:1;stroke:#000000;stroke-width:10.2571;stroke-opacity:0.481247"
   d="m 487.94658,464.97496 c -0.54293,-0.54293 -0.80134,-3.66537 -0.80134,-9.68281 v -8.88147 h 21.70284 21.70284 v 8.39115 c 0,4.61513 -0.31108,8.97239 -0.69128,9.68281 -0.66006,1.23334 -1.60368,1.29165 -20.9015,1.29165 -14.82869,0 -20.4236,-0.21337 -21.01156,-0.80133 z"
   id="path6"
   transform="matrix(0.6656,0,0,0.6656,-10.24,-10.24)" /><path
   style="fill:#ffffff;fill-opacity:1;stroke:#000000;stroke-width:10.2571;stroke-opacity:0.481247"
   d="m 272.45409,410.36017 c -24.74025,-2.25819 -45.23966,-19.64087 -51.9136,-44.02068 -1.10663,-4.0425 -1.38936,-7.03414 -1.39431,-14.75351 -0.006,-8.60316 0.19319,-10.33779 1.78215,-15.55699 3.30212,-10.8464 8.35555,-19.10495 16.23375,-26.52998 6.00144,-5.65623 11.23755,-9.06905 18.53059,-12.07799 3.2687,-1.34859 6.16182,-2.86009 6.42917,-3.35888 0.26734,-0.49878 5.36854,-18.63643 11.33601,-40.30588 5.96746,-21.66945 11.73776,-41.65275 12.82289,-44.40735 10.1437,-25.7496 33.65035,-44.07852 61.63245,-48.05686 6.2504,-0.88865 97.97314,-0.88347 104.17362,0.006 27.8186,3.99009 51.2389,22.15762 61.46138,47.67665 1.18591,2.96047 7.03387,23.11223 12.99545,44.78168 5.96159,21.66945 11.06005,39.8071 11.32992,40.30588 0.26988,0.49879 3.16507,2.01299 6.43377,3.36489 13.82965,5.7198 25.03694,16.31175 31.34287,29.62196 4.0189,8.48288 5.22389,14.24223 5.20356,24.87088 -0.014,7.33406 -0.31577,10.44174 -1.40012,14.41962 -5.75246,21.10276 -21.41996,36.66936 -42.84607,42.57013 l -6.39054,1.75995 -126.21035,0.0891 c -69.4157,0.049 -128.61436,-0.13032 -131.55259,-0.39851 z m 18.35753,-18.48571 c 13.98708,-4.62963 25.00048,-16.75854 27.97228,-30.80549 1.04891,-4.95794 0.91502,-14.36961 -0.27631,-19.42353 -4.08017,-17.30904 -19.7273,-30.48268 -37.86178,-31.8766 -24.47959,-1.88165 -45.25349,17.46804 -45.25349,42.15103 0,20.9024 15.13026,38.54238 35.75776,41.68904 5.79921,0.88465 13.91049,0.16912 19.66154,-1.73445 z m 242.87144,0.7188 c 7.69171,-2.00344 15.76457,-7.22771 21.34961,-13.81618 14.98843,-17.68133 11.8916,-46.2727 -6.52226,-60.21651 -24.57519,-18.60946 -60.07698,-6.35645 -67.02956,23.13445 -1.17883,5.00025 -1.31029,14.42142 -0.27033,19.37395 0.99566,4.7416 4.71874,12.7224 7.6959,16.49697 10.7565,13.63751 27.95393,19.40907 44.77664,15.02732 z M 488.022,265.06122 c 2.02933,-1.00577 4.43026,-2.94139 5.79747,-4.67387 5.24364,-6.64455 5.24826,-10.24242 0.0374,-29.10303 -6.35635,-23.00663 -9.02454,-28.72378 -17.63654,-37.78997 -5.84364,-6.15184 -11.26228,-10.08351 -18.56187,-13.46817 -11.22382,-5.20423 -9.67295,-5.06792 -57.65844,-5.06792 -47.98549,0 -46.43462,-0.13631 -57.65844,5.06792 -12.93382,5.99713 -23.79974,16.8417 -29.29553,29.23798 -1.99279,4.49492 -3.03396,7.84819 -7.56594,24.36723 -3.7676,13.7329 -4.11311,18.28386 -1.75841,23.16165 1.57499,3.26263 5.25777,6.90518 8.63992,8.54558 2.80926,1.36253 3.46237,1.37302 87.51349,1.40606 l 84.68311,0.0333 z"
   id="path7"
   transform="matrix(0.6656,0,0,0.6656,-10.24,-10.24)" /></svg>
