<?xml version="1.0" ?>
<!-- Uploaded to: SVG Repo, www.svgrepo.com, Generator: SVG Repo Mixer Tools -->
<svg width="800px" height="800px" viewBox="0 0 64 64" id="Layer_1" version="1.1" xml:space="preserve" xmlns="http://www.w3.org/2000/svg" xmlns:xlink="http://www.w3.org/1999/xlink">
<style type="text/css">
	.st0{fill:#1379C2;}
	.st1{fill:#358DCC;}
	.st2{fill-rule:evenodd;clip-rule:evenodd;fill:#3FB754;}
	.st3{fill-rule:evenodd;clip-rule:evenodd;fill:#CCCCCC;}
	.st4{fill:#5D5E61;}
	.st5{fill:#924F34;}
	.st6{fill:#E6E6E6;}
	.st7{fill:#0F8C7E;}
	.st8{fill-rule:evenodd;clip-rule:evenodd;fill:#E6E6E6;}
	.st9{fill-rule:evenodd;clip-rule:evenodd;fill:#E6E6E6;stroke:#000000;stroke-width:0.4799;stroke-miterlimit:2.6131;}
	.st10{fill:#823B1F;}
	.st11{fill:#FFC810;}
	.st12{fill-rule:evenodd;clip-rule:evenodd;fill:#924F34;}
	.st13{fill:#E04538;}
	.st14{fill-rule:evenodd;clip-rule:evenodd;}
	.st15{fill-rule:evenodd;clip-rule:evenodd;fill:#FFC810;}
	.st16{fill-rule:evenodd;clip-rule:evenodd;fill:#E4E7E9;}
	.st17{fill:#3FB754;}
	.st18{fill-rule:evenodd;clip-rule:evenodd;fill:#5D5E61;}
	.st19{fill:#C92B1C;}
	.st20{fill:#666666;}
	.st21{fill:#FFD95E;}
	.st22{fill:#4D4D4D;}
	.st23{fill-rule:evenodd;clip-rule:evenodd;fill:#0F8C7E;}
	.st24{fill:#999999;}
	.st25{fill:#CCCCCC;}
	.st26{fill-rule:evenodd;clip-rule:evenodd;fill:#358DCC;}
	.st27{fill-rule:evenodd;clip-rule:evenodd;fill:#823B1F;}
</style>
<g>
<path class="st0" d="M7.7,44.1H6.2h-3c-1.2,0-2.2-1-2.2-2.3V30.4c0-3.1,2.5-5.8,5.6-5.8h3.3l4.4-9.7c0.4-0.8,1.2-1.3,2-1.3v0h24.1   c1,0,1.8,0.6,2.1,1.5l4.3,9.6h6.7c5.3,0,9.4,4.5,9.4,9.8v7.5c0,1.2-1,2.3-2.3,2.3h-4.6h-0.9H7.7L7.7,44.1z M26.2,24.6l0-6.5h-8.3   l-3,6.5H26.2L26.2,24.6z M30.6,18.1l0,6.5h11.3l-3-6.5H30.6L30.6,18.1z"/>
<path d="M3.2,45.1c-1.8,0-3.2-1.4-3.2-3.2V30.4c0-3.6,2.9-6.8,6.6-6.8h2.7l4.1-9.1l0,0c0.6-1.3,1.7-1.9,2.9-1.9h24.1   c1.3,0,2.6,0.8,3,2.1l4,8.9h6.1c5.9,0,10.4,5,10.4,10.7v7.5c0,1.8-1.4,3.2-3.2,3.2C41.6,45.1,22.4,45.1,3.2,45.1L3.2,45.1z    M60.8,43.2c0.7,0,1.3-0.6,1.3-1.3v-7.5c0-4.7-3.7-8.8-8.5-8.8h-7.3l-4.6-10.1l0-0.1c-0.2-0.5-0.7-0.8-1.2-0.8H16.4   c-0.5,0-1,0.3-1.2,0.8v0l-4.7,10.3h-4c-2.6,0-4.7,2.2-4.7,4.8v11.5c0,0.7,0.6,1.3,1.3,1.3C22.4,43.2,41.6,43.2,60.8,43.2L60.8,43.2   z M25.2,23.6l0-4.6h-6.8l-2.1,4.6H25.2L25.2,23.6z M27.1,18.1l0,6.5l0,1h-1H13.4l3.6-7.9l0.3-0.6h0.6h8.3h1V18.1L27.1,18.1z    M31.6,19l0,4.6h8.8L38.4,19H31.6L31.6,19z M29.7,24.6l0-6.5v-1h1H39h0.6l0.3,0.6l3.6,7.9H30.6h-1L29.7,24.6L29.7,24.6z"/>
<path class="st11" d="M1,34.4v-4c0-0.3,0-0.6,0.1-0.8h60.8c0.8,1.4,1.2,3.1,1.2,4.8v0H1L1,34.4z"/>
<path d="M0,34.4v-4c0-0.1,0-0.3,0-0.5c0-0.2,0-0.3,0.1-0.5l0.1-0.8H1h61.3c1,1.9,1.6,3.6,1.6,5.8v0v1h-1H1H0V34.4L0,34.4z    M1.9,30.5v2.9H62c-0.1-1-0.4-2-0.8-2.9H1.9L1.9,30.5z"/>
<path class="st18" d="M17.2,37.8c-3.5,0-6.3,2.8-6.3,6.3c0,3.5,2.8,6.3,6.3,6.3c3.5,0,6.3-2.8,6.3-6.3   C23.5,40.6,20.7,37.8,17.2,37.8L17.2,37.8z"/>
<path d="M17.2,38.8c-3,0-5.3,2.4-5.3,5.3c0,3,2.4,5.3,5.3,5.3c3,0,5.3-2.4,5.3-5.3C22.5,41.2,20.1,38.8,17.2,38.8L17.2,38.8z    M17.2,36.8c4,0,7.3,3.3,7.3,7.3c0,4-3.3,7.3-7.3,7.3c-4,0-7.3-3.3-7.3-7.3C9.9,40.1,13.2,36.8,17.2,36.8L17.2,36.8z"/>
<path class="st8" d="M17.2,41.7c-1.3,0-2.4,1.1-2.4,2.4c0,1.3,1.1,2.4,2.4,2.4c1.3,0,2.4-1.1,2.4-2.4   C19.6,42.8,18.5,41.7,17.2,41.7L17.2,41.7z"/>
<path d="M17.2,42.7c-0.8,0-1.5,0.7-1.5,1.5c0,0.8,0.7,1.5,1.5,1.5c0.8,0,1.5-0.7,1.5-1.5C18.6,43.3,18,42.7,17.2,42.7L17.2,42.7z    M17.2,40.7c1.9,0,3.4,1.5,3.4,3.4c0,1.9-1.5,3.4-3.4,3.4c-1.9,0-3.4-1.5-3.4-3.4C13.8,42.3,15.3,40.7,17.2,40.7L17.2,40.7z"/>
<path class="st18" d="M46.5,37.8c-3.5,0-6.3,2.8-6.3,6.3c0,3.5,2.8,6.3,6.3,6.3c3.5,0,6.3-2.8,6.3-6.3C52.8,40.6,50,37.8,46.5,37.8   L46.5,37.8z"/>
<path d="M46.5,38.8c-3,0-5.3,2.4-5.3,5.3c0,3,2.4,5.3,5.3,5.3c3,0,5.3-2.4,5.3-5.3C51.8,41.2,49.4,38.8,46.5,38.8L46.5,38.8z    M46.5,36.8c4,0,7.3,3.3,7.3,7.3c0,4-3.3,7.3-7.3,7.3c-4,0-7.3-3.3-7.3-7.3C39.2,40.1,42.5,36.8,46.5,36.8L46.5,36.8z"/>
<polygon class="st8" points="14.9,24.6 26.2,24.6 26.2,18.1 17.8,18.1 14.9,24.6  "/>
<path d="M16.4,23.6h8.8l0-4.6h-6.8L16.4,23.6L16.4,23.6z M26.2,25.5H13.4l3.6-7.9l0.3-0.6h0.6h8.3h1v1l0,6.5l0,1H26.2L26.2,25.5z"/>
<polygon class="st8" points="30.6,18.1 30.6,24.6 41.9,24.6 39,18.1 30.6,18.1  "/>
<path d="M31.6,19l0,4.6h8.8L38.4,19H31.6L31.6,19z M29.7,24.6l0-6.5v-1h1H39h0.6l0.3,0.6l3.6,7.9H30.6h-1L29.7,24.6L29.7,24.6z"/>
<path class="st8" d="M46.5,41.7c-1.3,0-2.4,1.1-2.4,2.4c0,1.3,1.1,2.4,2.4,2.4c1.3,0,2.4-1.1,2.4-2.4   C48.9,42.8,47.8,41.7,46.5,41.7L46.5,41.7z"/>
<path d="M46.5,42.7c-0.8,0-1.5,0.7-1.5,1.5c0,0.8,0.7,1.5,1.5,1.5c0.8,0,1.5-0.7,1.5-1.5C47.9,43.3,47.3,42.7,46.5,42.7L46.5,42.7z    M46.5,40.7c1.9,0,3.4,1.5,3.4,3.4c0,1.9-1.5,3.4-3.4,3.4c-1.9,0-3.4-1.5-3.4-3.4C43.1,42.3,44.6,40.7,46.5,40.7L46.5,40.7z"/>
</g>
</svg>