<?xml version="1.0" encoding="UTF-8" standalone="no"?>
<!-- Uploaded to: SVG Repo, www.svgrepo.com, Transformed by: SVG Repo Mixer Tools -->

<svg
   height="800px"
   width="800px"
   version="1.1"
   id="_x32_"
   viewBox="-51.2 -51.2 614.40 614.40"
   xml:space="preserve"
   fill="#000000"
   stroke="#000000"
   stroke-width="15.36"
   sodipodi:docname="usermarker.svg"
   inkscape:version="1.4.2 (ebf0e94, 2025-05-08)"
   xmlns:inkscape="http://www.inkscape.org/namespaces/inkscape"
   xmlns:sodipodi="http://sodipodi.sourceforge.net/DTD/sodipodi-0.dtd"
   xmlns="http://www.w3.org/2000/svg"
   xmlns:svg="http://www.w3.org/2000/svg"><defs
   id="defs1" /><sodipodi:namedview
   id="namedview1"
   pagecolor="#ffffff"
   bordercolor="#000000"
   borderopacity="0.25"
   inkscape:showpageshadow="2"
   inkscape:pageopacity="0.0"
   inkscape:pagecheckerboard="0"
   inkscape:deskcolor="#d1d1d1"
   inkscape:zoom="1.4975"
   inkscape:cx="399.66611"
   inkscape:cy="400"
   inkscape:window-width="2560"
   inkscape:window-height="1403"
   inkscape:window-x="0"
   inkscape:window-y="0"
   inkscape:window-maximized="1"
   inkscape:current-layer="_x32_" />

<g
   id="SVGRepo_bgCarrier"
   stroke-width="0" />

<g
   id="SVGRepo_tracerCarrier"
   stroke-linecap="round"
   stroke-linejoin="round" />

<g
   id="SVGRepo_iconCarrier"> <style
   type="text/css"
   id="style1"> .st0{fill:#1c71d8;} </style> <g
   id="g1"> <path
   class="st0"
   d="M405.972,62.12c-82.83-82.826-217.114-82.826-299.94,0c-82.815,82.811-82.815,217.11,0,299.929L255.999,512 l149.972-149.952C488.782,279.23,488.782,144.93,405.972,62.12z M255.999,83.79c32.118,0,58.156,26.039,58.156,58.16 c0,32.129-26.039,58.16-58.156,58.16c-32.126,0-58.164-26.031-58.164-58.16C197.835,109.829,223.874,83.79,255.999,83.79z M172.552,305.423c0-46.084,37.36-83.448,83.448-83.448c46.08,0,83.444,37.364,83.444,83.448H172.552z"
   id="path1" /> </g> </g>

<path
   style="fill:#ffffff;stroke:#000000;stroke-width:10.2571;stroke-opacity:0.481247"
   d="m 391.31886,316.42403 c -9.63276,-1.53918 -21.75281,-6.43692 -29.28315,-11.83339 -11.82083,-8.47118 -21.35131,-22.17079 -25.15782,-36.16318 -1.85195,-6.80763 -2.50451,-20.26752 -1.33523,-27.54108 3.97669,-24.73714 23.52127,-46.20681 47.86024,-52.57433 18.23178,-4.76978 37.13263,-1.51882 53.04296,9.12343 14.25507,9.53506 24.17959,24.58397 27.71304,42.02229 1.36918,6.75713 1.01165,21.47128 -0.67194,27.65408 -4.11238,15.10233 -13.51968,28.92056 -25.52267,37.48987 -5.56342,3.9719 -15.38628,8.51288 -22.27147,10.29582 -5.58137,1.4453 -19.44728,2.3137 -24.37396,1.52649 z"
   id="path2"
   transform="matrix(0.768,0,0,0.768,-51.2,-51.2)" /><path
   style="fill:#ffffff;stroke:#000000;stroke-width:10.2571;stroke-opacity:0.481247"
   d="m 302.54121,451.25209 c 2.1214,-12.31312 4.29609,-19.51726 8.70962,-28.85261 12.93236,-27.3541 37.98656,-47.23228 68.32226,-54.20736 7.42413,-1.70702 24.81529,-2.39378 32.99414,-1.30288 33.02002,4.40419 62.14888,25.63582 76.15759,55.51024 4.4943,9.58435 6.62958,16.63826 8.73397,28.85261 l 0.43145,2.50417 H 400 302.10977 Z"
   id="path3"
   transform="matrix(0.768,0,0,0.768,-51.2,-51.2)" /></svg>
